<svg xmlns="http://www.w3.org/2000/svg" width="840" height="440">
  <rect width="840" height="440" fill="#f0f0ff"/>
  <text x="10" y="20" font-size="16" fill="#333">M0 Layer</text>
  <circle cx="40" cy="360" r="3" fill="#cccccc" opacity="0.6"/>
  <circle cx="40" cy="320" r="3" fill="#cccccc" opacity="0.6"/>
  <circle cx="40" cy="280" r="3" fill="#cccccc" opacity="0.6"/>
  <circle cx="40" cy="240" r="3" fill="#cccccc" opacity="0.6"/>
  <circle cx="40" cy="200" r="3" fill="#cccccc" opacity="0.6"/>
  <circle cx="40" cy="160" r="3" fill="#cccccc" opacity="0.6"/>
  <circle cx="40" cy="120" r="3" fill="#cccccc" opacity="0.6"/>
  <circle cx="40" cy="80" r="3" fill="#cccccc" opacity="0.6"/>
  <circle cx="40" cy="40" r="3" fill="#cccccc" opacity="0.6"/>
  <circle cx="80" cy="360" r="3" fill="#cccccc" opacity="0.6"/>
  <circle cx="80" cy="320" r="3" fill="#cccccc" opacity="0.6"/>
  <circle cx="80" cy="280" r="3" fill="#cccccc" opacity="0.6"/>
  <circle cx="80" cy="240" r="3" fill="#cccccc" opacity="0.6"/>
  <circle cx="80" cy="200" r="3" fill="#cccccc" opacity="0.6"/>
  <circle cx="80" cy="160" r="3" fill="#cccccc" opacity="0.6"/>
  <circle cx="80" cy="120" r="3" fill="#cccccc" opacity="0.6"/>
  <circle cx="80" cy="80" r="3" fill="#cccccc" opacity="0.6"/>
  <circle cx="80" cy="40" r="3" fill="#cccccc" opacity="0.6"/>
  <circle cx="120" cy="360" r="3" fill="#cccccc" opacity="0.6"/>
  <circle cx="120" cy="320" r="3" fill="#cccccc" opacity="0.6"/>
  <circle cx="120" cy="280" r="3" fill="#cccccc" opacity="0.6"/>
  <circle cx="120" cy="240" r="3" fill="#cccccc" opacity="0.6"/>
  <circle cx="120" cy="200" r="3" fill="#cccccc" opacity="0.6"/>
  <circle cx="120" cy="160" r="3" fill="#cccccc" opacity="0.6"/>
  <circle cx="120" cy="120" r="3" fill="#cccccc" opacity="0.6"/>
  <circle cx="120" cy="80" r="3" fill="#cccccc" opacity="0.6"/>
  <circle cx="120" cy="40" r="3" fill="#cccccc" opacity="0.6"/>
  <circle cx="160" cy="360" r="3" fill="#cccccc" opacity="0.6"/>
  <circle cx="160" cy="320" r="3" fill="#cccccc" opacity="0.6"/>
  <circle cx="160" cy="280" r="3" fill="#cccccc" opacity="0.6"/>
  <circle cx="160" cy="240" r="3" fill="#cccccc" opacity="0.6"/>
  <circle cx="160" cy="200" r="3" fill="#cccccc" opacity="0.6"/>
  <circle cx="160" cy="160" r="3" fill="#cccccc" opacity="0.6"/>
  <circle cx="160" cy="120" r="3" fill="#cccccc" opacity="0.6"/>
  <circle cx="160" cy="80" r="3" fill="#cccccc" opacity="0.6"/>
  <circle cx="160" cy="40" r="3" fill="#cccccc" opacity="0.6"/>
  <circle cx="200" cy="360" r="3" fill="#cccccc" opacity="0.6"/>
  <circle cx="200" cy="320" r="3" fill="#cccccc" opacity="0.6"/>
  <circle cx="200" cy="280" r="3" fill="#cccccc" opacity="0.6"/>
  <circle cx="200" cy="240" r="3" fill="#cccccc" opacity="0.6"/>
  <circle cx="200" cy="200" r="3" fill="#cccccc" opacity="0.6"/>
  <circle cx="200" cy="160" r="3" fill="#cccccc" opacity="0.6"/>
  <circle cx="200" cy="120" r="3" fill="#cccccc" opacity="0.6"/>
  <circle cx="200" cy="80" r="3" fill="#cccccc" opacity="0.6"/>
  <circle cx="200" cy="40" r="3" fill="#cccccc" opacity="0.6"/>
  <circle cx="240" cy="360" r="3" fill="#cccccc" opacity="0.6"/>
  <circle cx="240" cy="320" r="3" fill="#cccccc" opacity="0.6"/>
  <circle cx="240" cy="280" r="3" fill="#cccccc" opacity="0.6"/>
  <circle cx="240" cy="240" r="3" fill="#cccccc" opacity="0.6"/>
  <circle cx="240" cy="200" r="3" fill="#cccccc" opacity="0.6"/>
  <circle cx="240" cy="160" r="3" fill="#cccccc" opacity="0.6"/>
  <circle cx="240" cy="120" r="3" fill="#cccccc" opacity="0.6"/>
  <circle cx="240" cy="80" r="3" fill="#cccccc" opacity="0.6"/>
  <circle cx="240" cy="40" r="3" fill="#cccccc" opacity="0.6"/>
  <circle cx="280" cy="360" r="3" fill="#cccccc" opacity="0.6"/>
  <circle cx="280" cy="320" r="3" fill="#cccccc" opacity="0.6"/>
  <circle cx="280" cy="280" r="3" fill="#cccccc" opacity="0.6"/>
  <circle cx="280" cy="240" r="3" fill="#cccccc" opacity="0.6"/>
  <circle cx="280" cy="200" r="3" fill="#cccccc" opacity="0.6"/>
  <circle cx="280" cy="160" r="3" fill="#cccccc" opacity="0.6"/>
  <circle cx="280" cy="120" r="3" fill="#cccccc" opacity="0.6"/>
  <circle cx="280" cy="80" r="3" fill="#cccccc" opacity="0.6"/>
  <circle cx="280" cy="40" r="3" fill="#cccccc" opacity="0.6"/>
  <circle cx="320" cy="360" r="3" fill="#cccccc" opacity="0.6"/>
  <circle cx="320" cy="320" r="3" fill="#cccccc" opacity="0.6"/>
  <circle cx="320" cy="280" r="3" fill="#cccccc" opacity="0.6"/>
  <circle cx="320" cy="240" r="3" fill="#cccccc" opacity="0.6"/>
  <circle cx="320" cy="200" r="3" fill="#cccccc" opacity="0.6"/>
  <circle cx="320" cy="160" r="3" fill="#cccccc" opacity="0.6"/>
  <circle cx="320" cy="120" r="3" fill="#cccccc" opacity="0.6"/>
  <circle cx="320" cy="80" r="3" fill="#cccccc" opacity="0.6"/>
  <circle cx="320" cy="40" r="3" fill="#cccccc" opacity="0.6"/>
  <circle cx="360" cy="360" r="3" fill="#cccccc" opacity="0.6"/>
  <circle cx="360" cy="320" r="3" fill="#cccccc" opacity="0.6"/>
  <circle cx="360" cy="280" r="3" fill="#cccccc" opacity="0.6"/>
  <circle cx="360" cy="240" r="3" fill="#cccccc" opacity="0.6"/>
  <circle cx="360" cy="200" r="3" fill="#cccccc" opacity="0.6"/>
  <circle cx="360" cy="160" r="3" fill="#cccccc" opacity="0.6"/>
  <circle cx="360" cy="120" r="3" fill="#cccccc" opacity="0.6"/>
  <circle cx="360" cy="80" r="3" fill="#cccccc" opacity="0.6"/>
  <circle cx="360" cy="40" r="3" fill="#cccccc" opacity="0.6"/>
  <circle cx="400" cy="360" r="3" fill="#cccccc" opacity="0.6"/>
  <circle cx="400" cy="320" r="3" fill="#cccccc" opacity="0.6"/>
  <circle cx="400" cy="280" r="3" fill="#cccccc" opacity="0.6"/>
  <circle cx="400" cy="240" r="3" fill="#cccccc" opacity="0.6"/>
  <circle cx="400" cy="200" r="3" fill="#cccccc" opacity="0.6"/>
  <circle cx="400" cy="160" r="3" fill="#cccccc" opacity="0.6"/>
  <circle cx="400" cy="120" r="3" fill="#cccccc" opacity="0.6"/>
  <circle cx="400" cy="80" r="3" fill="#cccccc" opacity="0.6"/>
  <circle cx="400" cy="40" r="3" fill="#cccccc" opacity="0.6"/>
  <circle cx="440" cy="360" r="3" fill="#cccccc" opacity="0.6"/>
  <circle cx="440" cy="320" r="3" fill="#cccccc" opacity="0.6"/>
  <circle cx="440" cy="280" r="3" fill="#cccccc" opacity="0.6"/>
  <circle cx="440" cy="240" r="3" fill="#cccccc" opacity="0.6"/>
  <circle cx="440" cy="200" r="3" fill="#cccccc" opacity="0.6"/>
  <circle cx="440" cy="160" r="3" fill="#cccccc" opacity="0.6"/>
  <circle cx="440" cy="120" r="3" fill="#cccccc" opacity="0.6"/>
  <circle cx="440" cy="80" r="3" fill="#cccccc" opacity="0.6"/>
  <circle cx="440" cy="40" r="3" fill="#cccccc" opacity="0.6"/>
  <circle cx="480" cy="360" r="3" fill="#cccccc" opacity="0.6"/>
  <circle cx="480" cy="320" r="3" fill="#cccccc" opacity="0.6"/>
  <circle cx="480" cy="280" r="3" fill="#cccccc" opacity="0.6"/>
  <circle cx="480" cy="240" r="3" fill="#cccccc" opacity="0.6"/>
  <circle cx="480" cy="200" r="3" fill="#cccccc" opacity="0.6"/>
  <circle cx="480" cy="160" r="3" fill="#cccccc" opacity="0.6"/>
  <circle cx="480" cy="120" r="3" fill="#cccccc" opacity="0.6"/>
  <circle cx="480" cy="80" r="3" fill="#cccccc" opacity="0.6"/>
  <circle cx="480" cy="40" r="3" fill="#cccccc" opacity="0.6"/>
  <circle cx="520" cy="360" r="3" fill="#cccccc" opacity="0.6"/>
  <circle cx="520" cy="320" r="3" fill="#cccccc" opacity="0.6"/>
  <circle cx="520" cy="280" r="3" fill="#cccccc" opacity="0.6"/>
  <circle cx="520" cy="240" r="3" fill="#cccccc" opacity="0.6"/>
  <circle cx="520" cy="200" r="3" fill="#cccccc" opacity="0.6"/>
  <circle cx="520" cy="160" r="3" fill="#cccccc" opacity="0.6"/>
  <circle cx="520" cy="120" r="3" fill="#cccccc" opacity="0.6"/>
  <circle cx="520" cy="80" r="3" fill="#cccccc" opacity="0.6"/>
  <circle cx="520" cy="40" r="3" fill="#cccccc" opacity="0.6"/>
  <circle cx="560" cy="360" r="3" fill="#cccccc" opacity="0.6"/>
  <circle cx="560" cy="320" r="3" fill="#cccccc" opacity="0.6"/>
  <circle cx="560" cy="280" r="3" fill="#cccccc" opacity="0.6"/>
  <circle cx="560" cy="240" r="3" fill="#cccccc" opacity="0.6"/>
  <circle cx="560" cy="200" r="3" fill="#cccccc" opacity="0.6"/>
  <circle cx="560" cy="160" r="3" fill="#cccccc" opacity="0.6"/>
  <circle cx="560" cy="120" r="3" fill="#cccccc" opacity="0.6"/>
  <circle cx="560" cy="80" r="3" fill="#cccccc" opacity="0.6"/>
  <circle cx="560" cy="40" r="3" fill="#cccccc" opacity="0.6"/>
  <circle cx="600" cy="360" r="3" fill="#cccccc" opacity="0.6"/>
  <circle cx="600" cy="320" r="3" fill="#cccccc" opacity="0.6"/>
  <circle cx="600" cy="280" r="3" fill="#cccccc" opacity="0.6"/>
  <circle cx="600" cy="240" r="3" fill="#cccccc" opacity="0.6"/>
  <circle cx="600" cy="200" r="3" fill="#cccccc" opacity="0.6"/>
  <circle cx="600" cy="160" r="3" fill="#cccccc" opacity="0.6"/>
  <circle cx="600" cy="120" r="3" fill="#cccccc" opacity="0.6"/>
  <circle cx="600" cy="80" r="3" fill="#cccccc" opacity="0.6"/>
  <circle cx="600" cy="40" r="3" fill="#cccccc" opacity="0.6"/>
  <circle cx="640" cy="360" r="3" fill="#cccccc" opacity="0.6"/>
  <circle cx="640" cy="320" r="3" fill="#cccccc" opacity="0.6"/>
  <circle cx="640" cy="280" r="3" fill="#cccccc" opacity="0.6"/>
  <circle cx="640" cy="240" r="3" fill="#cccccc" opacity="0.6"/>
  <circle cx="640" cy="200" r="3" fill="#cccccc" opacity="0.6"/>
  <circle cx="640" cy="160" r="3" fill="#cccccc" opacity="0.6"/>
  <circle cx="640" cy="120" r="3" fill="#cccccc" opacity="0.6"/>
  <circle cx="640" cy="80" r="3" fill="#cccccc" opacity="0.6"/>
  <circle cx="640" cy="40" r="3" fill="#cccccc" opacity="0.6"/>
  <circle cx="680" cy="360" r="3" fill="#cccccc" opacity="0.6"/>
  <circle cx="680" cy="320" r="3" fill="#cccccc" opacity="0.6"/>
  <circle cx="680" cy="280" r="3" fill="#cccccc" opacity="0.6"/>
  <circle cx="680" cy="240" r="3" fill="#cccccc" opacity="0.6"/>
  <circle cx="680" cy="200" r="3" fill="#cccccc" opacity="0.6"/>
  <circle cx="680" cy="160" r="3" fill="#cccccc" opacity="0.6"/>
  <circle cx="680" cy="120" r="3" fill="#cccccc" opacity="0.6"/>
  <circle cx="680" cy="80" r="3" fill="#cccccc" opacity="0.6"/>
  <circle cx="680" cy="40" r="3" fill="#cccccc" opacity="0.6"/>
  <circle cx="720" cy="360" r="3" fill="#cccccc" opacity="0.6"/>
  <circle cx="720" cy="320" r="3" fill="#cccccc" opacity="0.6"/>
  <circle cx="720" cy="280" r="3" fill="#cccccc" opacity="0.6"/>
  <circle cx="720" cy="240" r="3" fill="#cccccc" opacity="0.6"/>
  <circle cx="720" cy="200" r="3" fill="#cccccc" opacity="0.6"/>
  <circle cx="720" cy="160" r="3" fill="#cccccc" opacity="0.6"/>
  <circle cx="720" cy="120" r="3" fill="#cccccc" opacity="0.6"/>
  <circle cx="720" cy="80" r="3" fill="#cccccc" opacity="0.6"/>
  <circle cx="720" cy="40" r="3" fill="#cccccc" opacity="0.6"/>
  <circle cx="760" cy="360" r="3" fill="#cccccc" opacity="0.6"/>
  <circle cx="760" cy="320" r="3" fill="#cccccc" opacity="0.6"/>
  <circle cx="760" cy="280" r="3" fill="#cccccc" opacity="0.6"/>
  <circle cx="760" cy="240" r="3" fill="#cccccc" opacity="0.6"/>
  <circle cx="760" cy="200" r="3" fill="#cccccc" opacity="0.6"/>
  <circle cx="760" cy="160" r="3" fill="#cccccc" opacity="0.6"/>
  <circle cx="760" cy="120" r="3" fill="#cccccc" opacity="0.6"/>
  <circle cx="760" cy="80" r="3" fill="#cccccc" opacity="0.6"/>
  <circle cx="760" cy="40" r="3" fill="#cccccc" opacity="0.6"/>
  <line x1="40" y1="360" x2="40" y2="320" stroke="#e0e0e0" stroke-width="1" stroke-dasharray="4,4"/>
  <line x1="40" y1="80" x2="40" y2="40" stroke="#e0e0e0" stroke-width="1" stroke-dasharray="4,4"/>
  <line x1="80" y1="360" x2="80" y2="320" stroke="#e0e0e0" stroke-width="1" stroke-dasharray="4,4"/>
  <line x1="80" y1="360" x2="160" y2="360" stroke="#e0e0e0" stroke-width="1" stroke-dasharray="4,4"/>
  <line x1="80" y1="320" x2="80" y2="280" stroke="#e0e0e0" stroke-width="1" stroke-dasharray="4,4"/>
  <line x1="80" y1="280" x2="80" y2="240" stroke="#e0e0e0" stroke-width="1" stroke-dasharray="4,4"/>
  <line x1="80" y1="280" x2="160" y2="280" stroke="#e0e0e0" stroke-width="1" stroke-dasharray="4,4"/>
  <line x1="80" y1="240" x2="80" y2="200" stroke="#e0e0e0" stroke-width="1" stroke-dasharray="4,4"/>
  <line x1="80" y1="240" x2="160" y2="240" stroke="#e0e0e0" stroke-width="1" stroke-dasharray="4,4"/>
  <line x1="80" y1="200" x2="80" y2="160" stroke="#e0e0e0" stroke-width="1" stroke-dasharray="4,4"/>
  <line x1="80" y1="200" x2="160" y2="200" stroke="#e0e0e0" stroke-width="1" stroke-dasharray="4,4"/>
  <line x1="80" y1="160" x2="80" y2="120" stroke="#e0e0e0" stroke-width="1" stroke-dasharray="4,4"/>
  <line x1="80" y1="160" x2="160" y2="160" stroke="#e0e0e0" stroke-width="1" stroke-dasharray="4,4"/>
  <line x1="80" y1="120" x2="80" y2="80" stroke="#e0e0e0" stroke-width="1" stroke-dasharray="4,4"/>
  <line x1="80" y1="120" x2="160" y2="120" stroke="#e0e0e0" stroke-width="1" stroke-dasharray="4,4"/>
  <line x1="80" y1="80" x2="80" y2="40" stroke="#e0e0e0" stroke-width="1" stroke-dasharray="4,4"/>
  <line x1="80" y1="40" x2="160" y2="40" stroke="#e0e0e0" stroke-width="1" stroke-dasharray="4,4"/>
  <line x1="120" y1="360" x2="120" y2="320" stroke="#e0e0e0" stroke-width="1" stroke-dasharray="4,4"/>
  <line x1="120" y1="80" x2="120" y2="40" stroke="#e0e0e0" stroke-width="1" stroke-dasharray="4,4"/>
  <line x1="160" y1="360" x2="160" y2="320" stroke="#e0e0e0" stroke-width="1" stroke-dasharray="4,4"/>
  <line x1="160" y1="360" x2="240" y2="360" stroke="#e0e0e0" stroke-width="1" stroke-dasharray="4,4"/>
  <line x1="160" y1="320" x2="160" y2="280" stroke="#e0e0e0" stroke-width="1" stroke-dasharray="4,4"/>
  <line x1="160" y1="280" x2="160" y2="240" stroke="#e0e0e0" stroke-width="1" stroke-dasharray="4,4"/>
  <line x1="160" y1="280" x2="240" y2="280" stroke="#e0e0e0" stroke-width="1" stroke-dasharray="4,4"/>
  <line x1="160" y1="240" x2="160" y2="200" stroke="#e0e0e0" stroke-width="1" stroke-dasharray="4,4"/>
  <line x1="160" y1="240" x2="240" y2="240" stroke="#e0e0e0" stroke-width="1" stroke-dasharray="4,4"/>
  <line x1="160" y1="200" x2="160" y2="160" stroke="#e0e0e0" stroke-width="1" stroke-dasharray="4,4"/>
  <line x1="160" y1="200" x2="240" y2="200" stroke="#e0e0e0" stroke-width="1" stroke-dasharray="4,4"/>
  <line x1="160" y1="160" x2="160" y2="120" stroke="#e0e0e0" stroke-width="1" stroke-dasharray="4,4"/>
  <line x1="160" y1="160" x2="240" y2="160" stroke="#e0e0e0" stroke-width="1" stroke-dasharray="4,4"/>
  <line x1="160" y1="120" x2="160" y2="80" stroke="#e0e0e0" stroke-width="1" stroke-dasharray="4,4"/>
  <line x1="160" y1="120" x2="240" y2="120" stroke="#e0e0e0" stroke-width="1" stroke-dasharray="4,4"/>
  <line x1="160" y1="80" x2="160" y2="40" stroke="#e0e0e0" stroke-width="1" stroke-dasharray="4,4"/>
  <line x1="160" y1="40" x2="240" y2="40" stroke="#e0e0e0" stroke-width="1" stroke-dasharray="4,4"/>
  <line x1="200" y1="360" x2="200" y2="320" stroke="#e0e0e0" stroke-width="1" stroke-dasharray="4,4"/>
  <line x1="200" y1="80" x2="200" y2="40" stroke="#e0e0e0" stroke-width="1" stroke-dasharray="4,4"/>
  <line x1="240" y1="360" x2="240" y2="320" stroke="#e0e0e0" stroke-width="1" stroke-dasharray="4,4"/>
  <line x1="240" y1="360" x2="320" y2="360" stroke="#e0e0e0" stroke-width="1" stroke-dasharray="4,4"/>
  <line x1="240" y1="320" x2="240" y2="280" stroke="#e0e0e0" stroke-width="1" stroke-dasharray="4,4"/>
  <line x1="240" y1="280" x2="240" y2="240" stroke="#e0e0e0" stroke-width="1" stroke-dasharray="4,4"/>
  <line x1="240" y1="280" x2="320" y2="280" stroke="#e0e0e0" stroke-width="1" stroke-dasharray="4,4"/>
  <line x1="240" y1="240" x2="240" y2="200" stroke="#e0e0e0" stroke-width="1" stroke-dasharray="4,4"/>
  <line x1="240" y1="240" x2="320" y2="240" stroke="#e0e0e0" stroke-width="1" stroke-dasharray="4,4"/>
  <line x1="240" y1="200" x2="240" y2="160" stroke="#e0e0e0" stroke-width="1" stroke-dasharray="4,4"/>
  <line x1="240" y1="200" x2="320" y2="200" stroke="#e0e0e0" stroke-width="1" stroke-dasharray="4,4"/>
  <line x1="240" y1="160" x2="240" y2="120" stroke="#e0e0e0" stroke-width="1" stroke-dasharray="4,4"/>
  <line x1="240" y1="160" x2="320" y2="160" stroke="#e0e0e0" stroke-width="1" stroke-dasharray="4,4"/>
  <line x1="240" y1="120" x2="240" y2="80" stroke="#e0e0e0" stroke-width="1" stroke-dasharray="4,4"/>
  <line x1="240" y1="120" x2="320" y2="120" stroke="#e0e0e0" stroke-width="1" stroke-dasharray="4,4"/>
  <line x1="240" y1="80" x2="240" y2="40" stroke="#e0e0e0" stroke-width="1" stroke-dasharray="4,4"/>
  <line x1="240" y1="40" x2="320" y2="40" stroke="#e0e0e0" stroke-width="1" stroke-dasharray="4,4"/>
  <line x1="280" y1="360" x2="280" y2="320" stroke="#e0e0e0" stroke-width="1" stroke-dasharray="4,4"/>
  <line x1="280" y1="80" x2="280" y2="40" stroke="#e0e0e0" stroke-width="1" stroke-dasharray="4,4"/>
  <line x1="320" y1="360" x2="320" y2="320" stroke="#e0e0e0" stroke-width="1" stroke-dasharray="4,4"/>
  <line x1="320" y1="360" x2="400" y2="360" stroke="#e0e0e0" stroke-width="1" stroke-dasharray="4,4"/>
  <line x1="320" y1="320" x2="320" y2="280" stroke="#e0e0e0" stroke-width="1" stroke-dasharray="4,4"/>
  <line x1="320" y1="280" x2="320" y2="240" stroke="#e0e0e0" stroke-width="1" stroke-dasharray="4,4"/>
  <line x1="320" y1="280" x2="400" y2="280" stroke="#e0e0e0" stroke-width="1" stroke-dasharray="4,4"/>
  <line x1="320" y1="240" x2="320" y2="200" stroke="#e0e0e0" stroke-width="1" stroke-dasharray="4,4"/>
  <line x1="320" y1="240" x2="400" y2="240" stroke="#e0e0e0" stroke-width="1" stroke-dasharray="4,4"/>
  <line x1="320" y1="200" x2="320" y2="160" stroke="#e0e0e0" stroke-width="1" stroke-dasharray="4,4"/>
  <line x1="320" y1="200" x2="400" y2="200" stroke="#e0e0e0" stroke-width="1" stroke-dasharray="4,4"/>
  <line x1="320" y1="160" x2="320" y2="120" stroke="#e0e0e0" stroke-width="1" stroke-dasharray="4,4"/>
  <line x1="320" y1="160" x2="400" y2="160" stroke="#e0e0e0" stroke-width="1" stroke-dasharray="4,4"/>
  <line x1="320" y1="120" x2="320" y2="80" stroke="#e0e0e0" stroke-width="1" stroke-dasharray="4,4"/>
  <line x1="320" y1="120" x2="400" y2="120" stroke="#e0e0e0" stroke-width="1" stroke-dasharray="4,4"/>
  <line x1="320" y1="80" x2="320" y2="40" stroke="#e0e0e0" stroke-width="1" stroke-dasharray="4,4"/>
  <line x1="320" y1="40" x2="400" y2="40" stroke="#e0e0e0" stroke-width="1" stroke-dasharray="4,4"/>
  <line x1="360" y1="360" x2="360" y2="320" stroke="#e0e0e0" stroke-width="1" stroke-dasharray="4,4"/>
  <line x1="360" y1="80" x2="360" y2="40" stroke="#e0e0e0" stroke-width="1" stroke-dasharray="4,4"/>
  <line x1="400" y1="360" x2="400" y2="320" stroke="#e0e0e0" stroke-width="1" stroke-dasharray="4,4"/>
  <line x1="400" y1="360" x2="480" y2="360" stroke="#e0e0e0" stroke-width="1" stroke-dasharray="4,4"/>
  <line x1="400" y1="320" x2="400" y2="280" stroke="#e0e0e0" stroke-width="1" stroke-dasharray="4,4"/>
  <line x1="400" y1="280" x2="400" y2="240" stroke="#e0e0e0" stroke-width="1" stroke-dasharray="4,4"/>
  <line x1="400" y1="280" x2="480" y2="280" stroke="#e0e0e0" stroke-width="1" stroke-dasharray="4,4"/>
  <line x1="400" y1="240" x2="400" y2="200" stroke="#e0e0e0" stroke-width="1" stroke-dasharray="4,4"/>
  <line x1="400" y1="240" x2="480" y2="240" stroke="#e0e0e0" stroke-width="1" stroke-dasharray="4,4"/>
  <line x1="400" y1="200" x2="400" y2="160" stroke="#e0e0e0" stroke-width="1" stroke-dasharray="4,4"/>
  <line x1="400" y1="200" x2="480" y2="200" stroke="#e0e0e0" stroke-width="1" stroke-dasharray="4,4"/>
  <line x1="400" y1="160" x2="400" y2="120" stroke="#e0e0e0" stroke-width="1" stroke-dasharray="4,4"/>
  <line x1="400" y1="160" x2="480" y2="160" stroke="#e0e0e0" stroke-width="1" stroke-dasharray="4,4"/>
  <line x1="400" y1="120" x2="400" y2="80" stroke="#e0e0e0" stroke-width="1" stroke-dasharray="4,4"/>
  <line x1="400" y1="120" x2="480" y2="120" stroke="#e0e0e0" stroke-width="1" stroke-dasharray="4,4"/>
  <line x1="400" y1="80" x2="400" y2="40" stroke="#e0e0e0" stroke-width="1" stroke-dasharray="4,4"/>
  <line x1="400" y1="40" x2="480" y2="40" stroke="#e0e0e0" stroke-width="1" stroke-dasharray="4,4"/>
  <line x1="440" y1="360" x2="440" y2="320" stroke="#e0e0e0" stroke-width="1" stroke-dasharray="4,4"/>
  <line x1="440" y1="80" x2="440" y2="40" stroke="#e0e0e0" stroke-width="1" stroke-dasharray="4,4"/>
  <line x1="480" y1="360" x2="480" y2="320" stroke="#e0e0e0" stroke-width="1" stroke-dasharray="4,4"/>
  <line x1="480" y1="360" x2="560" y2="360" stroke="#e0e0e0" stroke-width="1" stroke-dasharray="4,4"/>
  <line x1="480" y1="320" x2="480" y2="280" stroke="#e0e0e0" stroke-width="1" stroke-dasharray="4,4"/>
  <line x1="480" y1="280" x2="480" y2="240" stroke="#e0e0e0" stroke-width="1" stroke-dasharray="4,4"/>
  <line x1="480" y1="280" x2="560" y2="280" stroke="#e0e0e0" stroke-width="1" stroke-dasharray="4,4"/>
  <line x1="480" y1="240" x2="480" y2="200" stroke="#e0e0e0" stroke-width="1" stroke-dasharray="4,4"/>
  <line x1="480" y1="240" x2="560" y2="240" stroke="#e0e0e0" stroke-width="1" stroke-dasharray="4,4"/>
  <line x1="480" y1="200" x2="480" y2="160" stroke="#e0e0e0" stroke-width="1" stroke-dasharray="4,4"/>
  <line x1="480" y1="200" x2="560" y2="200" stroke="#e0e0e0" stroke-width="1" stroke-dasharray="4,4"/>
  <line x1="480" y1="160" x2="480" y2="120" stroke="#e0e0e0" stroke-width="1" stroke-dasharray="4,4"/>
  <line x1="480" y1="160" x2="560" y2="160" stroke="#e0e0e0" stroke-width="1" stroke-dasharray="4,4"/>
  <line x1="480" y1="120" x2="480" y2="80" stroke="#e0e0e0" stroke-width="1" stroke-dasharray="4,4"/>
  <line x1="480" y1="120" x2="560" y2="120" stroke="#e0e0e0" stroke-width="1" stroke-dasharray="4,4"/>
  <line x1="480" y1="80" x2="480" y2="40" stroke="#e0e0e0" stroke-width="1" stroke-dasharray="4,4"/>
  <line x1="480" y1="40" x2="560" y2="40" stroke="#e0e0e0" stroke-width="1" stroke-dasharray="4,4"/>
  <line x1="520" y1="360" x2="520" y2="320" stroke="#e0e0e0" stroke-width="1" stroke-dasharray="4,4"/>
  <line x1="520" y1="80" x2="520" y2="40" stroke="#e0e0e0" stroke-width="1" stroke-dasharray="4,4"/>
  <line x1="560" y1="360" x2="560" y2="320" stroke="#e0e0e0" stroke-width="1" stroke-dasharray="4,4"/>
  <line x1="560" y1="360" x2="640" y2="360" stroke="#e0e0e0" stroke-width="1" stroke-dasharray="4,4"/>
  <line x1="560" y1="320" x2="560" y2="280" stroke="#e0e0e0" stroke-width="1" stroke-dasharray="4,4"/>
  <line x1="560" y1="280" x2="560" y2="240" stroke="#e0e0e0" stroke-width="1" stroke-dasharray="4,4"/>
  <line x1="560" y1="280" x2="640" y2="280" stroke="#e0e0e0" stroke-width="1" stroke-dasharray="4,4"/>
  <line x1="560" y1="240" x2="560" y2="200" stroke="#e0e0e0" stroke-width="1" stroke-dasharray="4,4"/>
  <line x1="560" y1="240" x2="640" y2="240" stroke="#e0e0e0" stroke-width="1" stroke-dasharray="4,4"/>
  <line x1="560" y1="200" x2="560" y2="160" stroke="#e0e0e0" stroke-width="1" stroke-dasharray="4,4"/>
  <line x1="560" y1="200" x2="640" y2="200" stroke="#e0e0e0" stroke-width="1" stroke-dasharray="4,4"/>
  <line x1="560" y1="160" x2="560" y2="120" stroke="#e0e0e0" stroke-width="1" stroke-dasharray="4,4"/>
  <line x1="560" y1="160" x2="640" y2="160" stroke="#e0e0e0" stroke-width="1" stroke-dasharray="4,4"/>
  <line x1="560" y1="120" x2="560" y2="80" stroke="#e0e0e0" stroke-width="1" stroke-dasharray="4,4"/>
  <line x1="560" y1="120" x2="640" y2="120" stroke="#e0e0e0" stroke-width="1" stroke-dasharray="4,4"/>
  <line x1="560" y1="80" x2="560" y2="40" stroke="#e0e0e0" stroke-width="1" stroke-dasharray="4,4"/>
  <line x1="560" y1="40" x2="640" y2="40" stroke="#e0e0e0" stroke-width="1" stroke-dasharray="4,4"/>
  <line x1="600" y1="360" x2="600" y2="320" stroke="#e0e0e0" stroke-width="1" stroke-dasharray="4,4"/>
  <line x1="600" y1="80" x2="600" y2="40" stroke="#e0e0e0" stroke-width="1" stroke-dasharray="4,4"/>
  <line x1="640" y1="360" x2="640" y2="320" stroke="#e0e0e0" stroke-width="1" stroke-dasharray="4,4"/>
  <line x1="640" y1="360" x2="720" y2="360" stroke="#e0e0e0" stroke-width="1" stroke-dasharray="4,4"/>
  <line x1="640" y1="320" x2="640" y2="280" stroke="#e0e0e0" stroke-width="1" stroke-dasharray="4,4"/>
  <line x1="640" y1="280" x2="640" y2="240" stroke="#e0e0e0" stroke-width="1" stroke-dasharray="4,4"/>
  <line x1="640" y1="280" x2="720" y2="280" stroke="#e0e0e0" stroke-width="1" stroke-dasharray="4,4"/>
  <line x1="640" y1="240" x2="640" y2="200" stroke="#e0e0e0" stroke-width="1" stroke-dasharray="4,4"/>
  <line x1="640" y1="240" x2="720" y2="240" stroke="#e0e0e0" stroke-width="1" stroke-dasharray="4,4"/>
  <line x1="640" y1="200" x2="640" y2="160" stroke="#e0e0e0" stroke-width="1" stroke-dasharray="4,4"/>
  <line x1="640" y1="200" x2="720" y2="200" stroke="#e0e0e0" stroke-width="1" stroke-dasharray="4,4"/>
  <line x1="640" y1="160" x2="640" y2="120" stroke="#e0e0e0" stroke-width="1" stroke-dasharray="4,4"/>
  <line x1="640" y1="160" x2="720" y2="160" stroke="#e0e0e0" stroke-width="1" stroke-dasharray="4,4"/>
  <line x1="640" y1="120" x2="640" y2="80" stroke="#e0e0e0" stroke-width="1" stroke-dasharray="4,4"/>
  <line x1="640" y1="120" x2="720" y2="120" stroke="#e0e0e0" stroke-width="1" stroke-dasharray="4,4"/>
  <line x1="640" y1="80" x2="640" y2="40" stroke="#e0e0e0" stroke-width="1" stroke-dasharray="4,4"/>
  <line x1="640" y1="40" x2="720" y2="40" stroke="#e0e0e0" stroke-width="1" stroke-dasharray="4,4"/>
  <line x1="680" y1="360" x2="680" y2="320" stroke="#e0e0e0" stroke-width="1" stroke-dasharray="4,4"/>
  <line x1="680" y1="80" x2="680" y2="40" stroke="#e0e0e0" stroke-width="1" stroke-dasharray="4,4"/>
  <line x1="720" y1="360" x2="720" y2="320" stroke="#e0e0e0" stroke-width="1" stroke-dasharray="4,4"/>
  <line x1="720" y1="320" x2="720" y2="280" stroke="#e0e0e0" stroke-width="1" stroke-dasharray="4,4"/>
  <line x1="720" y1="280" x2="720" y2="240" stroke="#e0e0e0" stroke-width="1" stroke-dasharray="4,4"/>
  <line x1="720" y1="240" x2="720" y2="200" stroke="#e0e0e0" stroke-width="1" stroke-dasharray="4,4"/>
  <line x1="720" y1="200" x2="720" y2="160" stroke="#e0e0e0" stroke-width="1" stroke-dasharray="4,4"/>
  <line x1="720" y1="160" x2="720" y2="120" stroke="#e0e0e0" stroke-width="1" stroke-dasharray="4,4"/>
  <line x1="720" y1="120" x2="720" y2="80" stroke="#e0e0e0" stroke-width="1" stroke-dasharray="4,4"/>
  <line x1="720" y1="80" x2="720" y2="40" stroke="#e0e0e0" stroke-width="1" stroke-dasharray="4,4"/>
  <line x1="760" y1="360" x2="760" y2="320" stroke="#e0e0e0" stroke-width="1" stroke-dasharray="4,4"/>
  <line x1="760" y1="80" x2="760" y2="40" stroke="#e0e0e0" stroke-width="1" stroke-dasharray="4,4"/>
  <line x1="160" y1="280" x2="160" y2="320" stroke="#e6194b" stroke-width="2"  opacity="0.85"/>
  <line x1="240" y1="280" x2="160" y2="280" stroke="#e6194b" stroke-width="2"  opacity="0.85"/>
  <line x1="240" y1="240" x2="240" y2="280" stroke="#e6194b" stroke-width="2"  opacity="0.85"/>
  <line x1="240" y1="200" x2="240" y2="240" stroke="#e6194b" stroke-width="2"  opacity="0.85"/>
  <line x1="240" y1="160" x2="240" y2="200" stroke="#e6194b" stroke-width="2"  opacity="0.85"/>
  <line x1="240" y1="120" x2="240" y2="160" stroke="#e6194b" stroke-width="2"  opacity="0.85"/>
  <line x1="240" y1="80" x2="240" y2="120" stroke="#e6194b" stroke-width="2"  opacity="0.85"/>
  <line x1="320" y1="280" x2="240" y2="280" stroke="#e6194b" stroke-width="2"  opacity="0.85"/>
  <line x1="400" y1="280" x2="320" y2="280" stroke="#e6194b" stroke-width="2"  opacity="0.85"/>
  <line x1="480" y1="280" x2="400" y2="280" stroke="#e6194b" stroke-width="2"  opacity="0.85"/>
  <line x1="560" y1="280" x2="480" y2="280" stroke="#e6194b" stroke-width="2"  opacity="0.85"/>
  <line x1="560" y1="320" x2="560" y2="280" stroke="#e6194b" stroke-width="2"  opacity="0.85"/>
  <line x1="480" y1="240" x2="480" y2="280" stroke="#e6194b" stroke-width="2"  opacity="0.85"/>
  <line x1="480" y1="200" x2="480" y2="240" stroke="#e6194b" stroke-width="2"  opacity="0.85"/>
  <line x1="480" y1="160" x2="480" y2="200" stroke="#e6194b" stroke-width="2"  opacity="0.85"/>
  <line x1="480" y1="120" x2="480" y2="160" stroke="#e6194b" stroke-width="2"  opacity="0.85"/>
  <line x1="480" y1="80" x2="480" y2="120" stroke="#e6194b" stroke-width="2"  opacity="0.85"/>
  <line x1="160" y1="200" x2="160" y2="240" stroke="#3cb44b" stroke-width="2"  opacity="0.85"/>
  <line x1="160" y1="160" x2="160" y2="200" stroke="#3cb44b" stroke-width="2"  opacity="0.85"/>
  <line x1="160" y1="120" x2="160" y2="160" stroke="#3cb44b" stroke-width="2"  opacity="0.85"/>
  <line x1="160" y1="80" x2="160" y2="120" stroke="#3cb44b" stroke-width="2"  opacity="0.85"/>
  <line x1="160" y1="240" x2="160" y2="240" stroke="#3cb44b" stroke-width="1" stroke-dasharray="3,3" opacity="0.85"/>
  <line x1="240" y1="320" x2="240" y2="320" stroke="#3cb44b" stroke-width="1" stroke-dasharray="3,3" opacity="0.85"/>
  <line x1="480" y1="320" x2="480" y2="320" stroke="#3cb44b" stroke-width="1" stroke-dasharray="3,3" opacity="0.85"/>
  <line x1="640" y1="160" x2="640" y2="160" stroke="#3cb44b" stroke-width="1" stroke-dasharray="3,3" opacity="0.85"/>
  <line x1="560" y1="160" x2="640" y2="160" stroke="#3cb44b" stroke-width="2"  opacity="0.85"/>
  <line x1="560" y1="120" x2="560" y2="160" stroke="#3cb44b" stroke-width="2"  opacity="0.85"/>
  <line x1="560" y1="80" x2="560" y2="120" stroke="#3cb44b" stroke-width="2"  opacity="0.85"/>
  <line x1="280" y1="320" x2="280" y2="320" stroke="#469990" stroke-width="1" stroke-dasharray="3,3" opacity="0.85"/>
  <line x1="360" y1="320" x2="360" y2="320" stroke="#469990" stroke-width="1" stroke-dasharray="3,3" opacity="0.85"/>
  <line x1="280" y1="80" x2="280" y2="80" stroke="#469990" stroke-width="1" stroke-dasharray="3,3" opacity="0.85"/>
  <line x1="360" y1="80" x2="360" y2="80" stroke="#469990" stroke-width="1" stroke-dasharray="3,3" opacity="0.85"/>
  <line x1="600" y1="320" x2="600" y2="320" stroke="#9A6324" stroke-width="1" stroke-dasharray="3,3" opacity="0.85"/>
  <line x1="680" y1="320" x2="680" y2="320" stroke="#9A6324" stroke-width="1" stroke-dasharray="3,3" opacity="0.85"/>
  <line x1="600" y1="80" x2="600" y2="80" stroke="#9A6324" stroke-width="1" stroke-dasharray="3,3" opacity="0.85"/>
  <line x1="680" y1="80" x2="680" y2="80" stroke="#9A6324" stroke-width="1" stroke-dasharray="3,3" opacity="0.85"/>
  <line x1="40" y1="40" x2="40" y2="40" stroke="#42d4f4" stroke-width="1" stroke-dasharray="3,3" opacity="0.85"/>
  <line x1="80" y1="40" x2="80" y2="40" stroke="#42d4f4" stroke-width="1" stroke-dasharray="3,3" opacity="0.85"/>
  <line x1="160" y1="40" x2="80" y2="40" stroke="#42d4f4" stroke-width="2"  opacity="0.85"/>
  <line x1="240" y1="40" x2="160" y2="40" stroke="#42d4f4" stroke-width="2"  opacity="0.85"/>
  <line x1="320" y1="40" x2="240" y2="40" stroke="#42d4f4" stroke-width="2"  opacity="0.85"/>
  <line x1="400" y1="40" x2="320" y2="40" stroke="#42d4f4" stroke-width="2"  opacity="0.85"/>
  <line x1="480" y1="40" x2="400" y2="40" stroke="#42d4f4" stroke-width="2"  opacity="0.85"/>
  <line x1="560" y1="40" x2="480" y2="40" stroke="#42d4f4" stroke-width="2"  opacity="0.85"/>
  <line x1="640" y1="40" x2="560" y2="40" stroke="#42d4f4" stroke-width="2"  opacity="0.85"/>
  <line x1="720" y1="40" x2="640" y2="40" stroke="#42d4f4" stroke-width="2"  opacity="0.85"/>
  <line x1="720" y1="40" x2="720" y2="40" stroke="#42d4f4" stroke-width="1" stroke-dasharray="3,3" opacity="0.85"/>
  <line x1="760" y1="40" x2="760" y2="40" stroke="#42d4f4" stroke-width="1" stroke-dasharray="3,3" opacity="0.85"/>
  <line x1="40" y1="360" x2="40" y2="360" stroke="#f032e6" stroke-width="1" stroke-dasharray="3,3" opacity="0.85"/>
  <line x1="80" y1="360" x2="80" y2="360" stroke="#f032e6" stroke-width="1" stroke-dasharray="3,3" opacity="0.85"/>
  <line x1="160" y1="360" x2="80" y2="360" stroke="#f032e6" stroke-width="2"  opacity="0.85"/>
  <line x1="240" y1="360" x2="160" y2="360" stroke="#f032e6" stroke-width="2"  opacity="0.85"/>
  <line x1="320" y1="360" x2="240" y2="360" stroke="#f032e6" stroke-width="2"  opacity="0.85"/>
  <line x1="400" y1="360" x2="320" y2="360" stroke="#f032e6" stroke-width="2"  opacity="0.85"/>
  <line x1="480" y1="360" x2="400" y2="360" stroke="#f032e6" stroke-width="2"  opacity="0.85"/>
  <line x1="560" y1="360" x2="480" y2="360" stroke="#f032e6" stroke-width="2"  opacity="0.85"/>
  <line x1="640" y1="360" x2="560" y2="360" stroke="#f032e6" stroke-width="2"  opacity="0.85"/>
  <line x1="720" y1="360" x2="640" y2="360" stroke="#f032e6" stroke-width="2"  opacity="0.85"/>
  <line x1="720" y1="360" x2="720" y2="360" stroke="#f032e6" stroke-width="1" stroke-dasharray="3,3" opacity="0.85"/>
  <line x1="760" y1="360" x2="760" y2="360" stroke="#f032e6" stroke-width="1" stroke-dasharray="3,3" opacity="0.85"/>
  <line x1="200" y1="320" x2="200" y2="320" stroke="#fffac8" stroke-width="1" stroke-dasharray="3,3" opacity="0.85"/>
  <line x1="200" y1="80" x2="200" y2="80" stroke="#fffac8" stroke-width="1" stroke-dasharray="3,3" opacity="0.85"/>
  <line x1="440" y1="320" x2="440" y2="320" stroke="#dcbeff" stroke-width="1" stroke-dasharray="3,3" opacity="0.85"/>
  <line x1="440" y1="80" x2="440" y2="80" stroke="#dcbeff" stroke-width="1" stroke-dasharray="3,3" opacity="0.85"/>
  <line x1="200" y1="40" x2="200" y2="80" stroke="#fabed4" stroke-width="2"  opacity="0.85"/>
  <line x1="200" y1="40" x2="200" y2="40" stroke="#fabed4" stroke-width="1" stroke-dasharray="3,3" opacity="0.85"/>
  <line x1="360" y1="40" x2="360" y2="40" stroke="#fabed4" stroke-width="1" stroke-dasharray="3,3" opacity="0.85"/>
  <line x1="360" y1="80" x2="360" y2="40" stroke="#fabed4" stroke-width="2"  opacity="0.85"/>
  <line x1="520" y1="320" x2="520" y2="320" stroke="#800000" stroke-width="1" stroke-dasharray="3,3" opacity="0.85"/>
  <line x1="520" y1="80" x2="520" y2="80" stroke="#800000" stroke-width="1" stroke-dasharray="3,3" opacity="0.85"/>
  <line x1="680" y1="360" x2="680" y2="360" stroke="#f58231" stroke-width="1" stroke-dasharray="3,3" opacity="0.85"/>
  <line x1="680" y1="320" x2="680" y2="360" stroke="#f58231" stroke-width="2"  opacity="0.85"/>
  <line x1="680" y1="40" x2="680" y2="40" stroke="#f58231" stroke-width="1" stroke-dasharray="3,3" opacity="0.85"/>
  <line x1="680" y1="80" x2="680" y2="40" stroke="#f58231" stroke-width="2"  opacity="0.85"/>
  <line x1="760" y1="320" x2="760" y2="320" stroke="#911eb4" stroke-width="1" stroke-dasharray="3,3" opacity="0.85"/>
  <line x1="760" y1="80" x2="760" y2="80" stroke="#911eb4" stroke-width="1" stroke-dasharray="3,3" opacity="0.85"/>
  <circle cx="160" cy="320" r="7" fill="#e6194b" stroke="white" stroke-width="1.5"/>
  <text x="169" y="324" font-size="9" fill="#e6194b">net_CK</text>
  <circle cx="560" cy="320" r="7" fill="#e6194b" stroke="white" stroke-width="1.5"/>
  <text x="569" y="324" font-size="9" fill="#e6194b">net_CK</text>
  <circle cx="240" cy="80" r="7" fill="#e6194b" stroke="white" stroke-width="1.5"/>
  <text x="249" y="84" font-size="9" fill="#e6194b">net_CK</text>
  <circle cx="480" cy="80" r="7" fill="#e6194b" stroke="white" stroke-width="1.5"/>
  <text x="489" y="84" font-size="9" fill="#e6194b">net_CK</text>
  <circle cx="240" cy="320" r="7" fill="#3cb44b" stroke="white" stroke-width="1.5"/>
  <text x="249" y="324" font-size="9" fill="#3cb44b">net_CKB</text>
  <circle cx="480" cy="320" r="7" fill="#3cb44b" stroke="white" stroke-width="1.5"/>
  <text x="489" y="324" font-size="9" fill="#3cb44b">net_CKB</text>
  <circle cx="160" cy="80" r="7" fill="#3cb44b" stroke="white" stroke-width="1.5"/>
  <text x="169" y="84" font-size="9" fill="#3cb44b">net_CKB</text>
  <circle cx="560" cy="80" r="7" fill="#3cb44b" stroke="white" stroke-width="1.5"/>
  <text x="569" y="84" font-size="9" fill="#3cb44b">net_CKB</text>
  <circle cx="280" cy="320" r="7" fill="#469990" stroke="white" stroke-width="1.5"/>
  <text x="289" y="324" font-size="9" fill="#469990">net_m</text>
  <circle cx="280" cy="80" r="7" fill="#469990" stroke="white" stroke-width="1.5"/>
  <text x="289" y="84" font-size="9" fill="#469990">net_m</text>
  <circle cx="360" cy="320" r="7" fill="#469990" stroke="white" stroke-width="1.5"/>
  <text x="369" y="324" font-size="9" fill="#469990">net_m</text>
  <circle cx="360" cy="80" r="7" fill="#469990" stroke="white" stroke-width="1.5"/>
  <text x="369" y="84" font-size="9" fill="#469990">net_m</text>
  <circle cx="600" cy="320" r="7" fill="#9A6324" stroke="white" stroke-width="1.5"/>
  <text x="609" y="324" font-size="9" fill="#9A6324">net_s</text>
  <circle cx="600" cy="80" r="7" fill="#9A6324" stroke="white" stroke-width="1.5"/>
  <text x="609" y="84" font-size="9" fill="#9A6324">net_s</text>
  <circle cx="680" cy="320" r="7" fill="#9A6324" stroke="white" stroke-width="1.5"/>
  <text x="689" y="324" font-size="9" fill="#9A6324">net_s</text>
  <circle cx="680" cy="80" r="7" fill="#9A6324" stroke="white" stroke-width="1.5"/>
  <text x="689" y="84" font-size="9" fill="#9A6324">net_s</text>
  <circle cx="40" cy="40" r="7" fill="#42d4f4" stroke="white" stroke-width="1.5"/>
  <text x="49" y="44" font-size="9" fill="#42d4f4">net_VDD</text>
  <circle cx="760" cy="40" r="7" fill="#42d4f4" stroke="white" stroke-width="1.5"/>
  <text x="769" y="44" font-size="9" fill="#42d4f4">net_VDD</text>
  <circle cx="40" cy="360" r="7" fill="#f032e6" stroke="white" stroke-width="1.5"/>
  <text x="49" y="364" font-size="9" fill="#f032e6">net_VSS</text>
  <circle cx="760" cy="360" r="7" fill="#f032e6" stroke="white" stroke-width="1.5"/>
  <text x="769" y="364" font-size="9" fill="#f032e6">net_VSS</text>
  <circle cx="200" cy="320" r="7" fill="#fffac8" stroke="white" stroke-width="1.5"/>
  <text x="209" y="324" font-size="9" fill="#fffac8">net_tg1</text>
  <circle cx="200" cy="80" r="7" fill="#fffac8" stroke="white" stroke-width="1.5"/>
  <text x="209" y="84" font-size="9" fill="#fffac8">net_tg1</text>
  <circle cx="440" cy="320" r="7" fill="#dcbeff" stroke="white" stroke-width="1.5"/>
  <text x="449" y="324" font-size="9" fill="#dcbeff">net_mB</text>
  <circle cx="440" cy="80" r="7" fill="#dcbeff" stroke="white" stroke-width="1.5"/>
  <text x="449" y="84" font-size="9" fill="#dcbeff">net_mB</text>
  <circle cx="200" cy="80" r="7" fill="#fabed4" stroke="white" stroke-width="1.5"/>
  <text x="209" y="84" font-size="9" fill="#fabed4">net_fb</text>
  <circle cx="360" cy="80" r="7" fill="#fabed4" stroke="white" stroke-width="1.5"/>
  <text x="369" y="84" font-size="9" fill="#fabed4">net_fb</text>
  <circle cx="520" cy="320" r="7" fill="#800000" stroke="white" stroke-width="1.5"/>
  <text x="529" y="324" font-size="9" fill="#800000">net_tg2</text>
  <circle cx="520" cy="80" r="7" fill="#800000" stroke="white" stroke-width="1.5"/>
  <text x="529" y="84" font-size="9" fill="#800000">net_tg2</text>
  <circle cx="680" cy="320" r="7" fill="#f58231" stroke="white" stroke-width="1.5"/>
  <text x="689" y="324" font-size="9" fill="#f58231">net_Q</text>
  <circle cx="680" cy="80" r="7" fill="#f58231" stroke="white" stroke-width="1.5"/>
  <text x="689" y="84" font-size="9" fill="#f58231">net_Q</text>
  <circle cx="760" cy="320" r="7" fill="#911eb4" stroke="white" stroke-width="1.5"/>
  <text x="769" y="324" font-size="9" fill="#911eb4">net_QB</text>
  <circle cx="760" cy="80" r="7" fill="#911eb4" stroke="white" stroke-width="1.5"/>
  <text x="769" y="84" font-size="9" fill="#911eb4">net_QB</text>
  <rect x="40" y="410" width="12" height="12" fill="#e6194b"/>
  <text x="55" y="421" font-size="10" fill="#333">net_CK</text>
  <rect x="120" y="410" width="12" height="12" fill="#3cb44b"/>
  <text x="135" y="421" font-size="10" fill="#333">net_CKB</text>
  <rect x="200" y="410" width="12" height="12" fill="#4363d8"/>
  <text x="215" y="421" font-size="10" fill="#333">net_D</text>
  <rect x="280" y="410" width="12" height="12" fill="#f58231"/>
  <text x="295" y="421" font-size="10" fill="#333">net_Q</text>
  <rect x="360" y="410" width="12" height="12" fill="#911eb4"/>
  <text x="375" y="421" font-size="10" fill="#333">net_QB</text>
  <rect x="440" y="410" width="12" height="12" fill="#42d4f4"/>
  <text x="455" y="421" font-size="10" fill="#333">net_VDD</text>
  <rect x="520" y="410" width="12" height="12" fill="#f032e6"/>
  <text x="535" y="421" font-size="10" fill="#333">net_VSS</text>
  <rect x="600" y="410" width="12" height="12" fill="#bfef45"/>
  <text x="615" y="421" font-size="10" fill="#333">net_di</text>
  <rect x="680" y="410" width="12" height="12" fill="#fabed4"/>
  <text x="695" y="421" font-size="10" fill="#333">net_fb</text>
  <rect x="760" y="410" width="12" height="12" fill="#469990"/>
  <text x="775" y="421" font-size="10" fill="#333">net_m</text>
</svg>