<?xml version="1.0" encoding="UTF-8"?>
<svg xmlns="http://www.w3.org/2000/svg" width="520" height="520" viewBox="0 0 520 520">
<rect width="520" height="520" fill="white"/>
<text x="260" y="25" text-anchor="middle" font-family="monospace" font-size="18" font-weight="bold" fill="#333">M2 层布线结果</text>
<line x1="80.0" y1="60" x2="80.0" y2="460" stroke="#E0E0E0" stroke-width="0.5"/>
<line x1="120.0" y1="60" x2="120.0" y2="460" stroke="#E0E0E0" stroke-width="0.5"/>
<line x1="160.0" y1="60" x2="160.0" y2="460" stroke="#E0E0E0" stroke-width="0.5"/>
<line x1="200.0" y1="60" x2="200.0" y2="460" stroke="#E0E0E0" stroke-width="0.5"/>
<line x1="240.0" y1="60" x2="240.0" y2="460" stroke="#E0E0E0" stroke-width="0.5"/>
<line x1="280.0" y1="60" x2="280.0" y2="460" stroke="#E0E0E0" stroke-width="0.5"/>
<line x1="320.0" y1="60" x2="320.0" y2="460" stroke="#E0E0E0" stroke-width="0.5"/>
<line x1="360.0" y1="60" x2="360.0" y2="460" stroke="#E0E0E0" stroke-width="0.5"/>
<line x1="400.0" y1="60" x2="400.0" y2="460" stroke="#E0E0E0" stroke-width="0.5"/>
<line x1="440.0" y1="60" x2="440.0" y2="460" stroke="#E0E0E0" stroke-width="0.5"/>
<line x1="60" y1="440.0" x2="460" y2="440.0" stroke="#E0E0E0" stroke-width="0.5"/>
<line x1="60" y1="400.0" x2="460" y2="400.0" stroke="#E0E0E0" stroke-width="0.5"/>
<line x1="60" y1="360.0" x2="460" y2="360.0" stroke="#E0E0E0" stroke-width="0.5"/>
<line x1="60" y1="320.0" x2="460" y2="320.0" stroke="#E0E0E0" stroke-width="0.5"/>
<line x1="60" y1="280.0" x2="460" y2="280.0" stroke="#E0E0E0" stroke-width="0.5"/>
<line x1="60" y1="240.0" x2="460" y2="240.0" stroke="#E0E0E0" stroke-width="0.5"/>
<line x1="60" y1="200.0" x2="460" y2="200.0" stroke="#E0E0E0" stroke-width="0.5"/>
<line x1="60" y1="160.0" x2="460" y2="160.0" stroke="#E0E0E0" stroke-width="0.5"/>
<line x1="60" y1="120.0" x2="460" y2="120.0" stroke="#E0E0E0" stroke-width="0.5"/>
<line x1="60" y1="80.0" x2="460" y2="80.0" stroke="#E0E0E0" stroke-width="0.5"/>
<text x="80.0" y="52" text-anchor="middle" font-family="monospace" font-size="10" fill="#888">0</text>
<text x="120.0" y="52" text-anchor="middle" font-family="monospace" font-size="10" fill="#888">1</text>
<text x="160.0" y="52" text-anchor="middle" font-family="monospace" font-size="10" fill="#888">2</text>
<text x="200.0" y="52" text-anchor="middle" font-family="monospace" font-size="10" fill="#888">3</text>
<text x="240.0" y="52" text-anchor="middle" font-family="monospace" font-size="10" fill="#888">4</text>
<text x="280.0" y="52" text-anchor="middle" font-family="monospace" font-size="10" fill="#888">5</text>
<text x="320.0" y="52" text-anchor="middle" font-family="monospace" font-size="10" fill="#888">6</text>
<text x="360.0" y="52" text-anchor="middle" font-family="monospace" font-size="10" fill="#888">7</text>
<text x="400.0" y="52" text-anchor="middle" font-family="monospace" font-size="10" fill="#888">8</text>
<text x="440.0" y="52" text-anchor="middle" font-family="monospace" font-size="10" fill="#888">9</text>
<text x="48" y="444.0" text-anchor="end" font-family="monospace" font-size="10" fill="#888">0</text>
<text x="48" y="404.0" text-anchor="end" font-family="monospace" font-size="10" fill="#888">1</text>
<text x="48" y="364.0" text-anchor="end" font-family="monospace" font-size="10" fill="#888">2</text>
<text x="48" y="324.0" text-anchor="end" font-family="monospace" font-size="10" fill="#888">3</text>
<text x="48" y="284.0" text-anchor="end" font-family="monospace" font-size="10" fill="#888">4</text>
<text x="48" y="244.0" text-anchor="end" font-family="monospace" font-size="10" fill="#888">5</text>
<text x="48" y="204.0" text-anchor="end" font-family="monospace" font-size="10" fill="#888">6</text>
<text x="48" y="164.0" text-anchor="end" font-family="monospace" font-size="10" fill="#888">7</text>
<text x="48" y="124.0" text-anchor="end" font-family="monospace" font-size="10" fill="#888">8</text>
<text x="48" y="84.0" text-anchor="end" font-family="monospace" font-size="10" fill="#888">9</text>
<rect x="60" y="482" width="12" height="12" fill="#E63946" rx="2"/>
<text x="76" y="492" font-family="monospace" font-size="11" fill="#333">netA(OK)</text>
<rect x="180" y="482" width="12" height="12" fill="#457B9D" rx="2"/>
<text x="196" y="492" font-family="monospace" font-size="11" fill="#333">netB(OK)</text>
<rect x="300" y="482" width="12" height="12" fill="#2A9D8F" rx="2"/>
<text x="316" y="492" font-family="monospace" font-size="11" fill="#333">netC(OK)</text>
</svg>
